<svg version="1.1" xmlns="http://www.w3.org/2000/svg" viewBox="0 0 561 522.3855218855219" width="561" height="522.3855218855219">
  <!-- svg-source:excalidraw -->
  
  <defs>
    <style class="style-fonts">
      @font-face {
        font-family: "Virgil";
        src: url("https://excalidraw.com/Virgil.woff2");
      }
      @font-face {
        font-family: "Cascadia";
        src: url("https://excalidraw.com/Cascadia.woff2");
      }
      @font-face {
        font-family: "Assistant";
        src: url("https://excalidraw.com/Assistant-Regular.woff2");
      }
    </style>
    
  </defs>
  <g stroke-linecap="round" transform="translate(147 52.38552188552194) rotate(0 127.5 195.5)"><path d="M32 0 C83.44 0.98, 137.02 0.48, 223 0 C245.36 -0.23, 252.75 7.67, 255 32 C252.42 146.1, 251.98 260.83, 255 359 C254.67 378.47, 242.29 389.29, 223 391 C179.8 391.82, 139.21 384.9, 32 391 C10.74 392.04, 2.09 380.03, 0 359 C-5.26 242.52, -3.03 122.96, 0 32 C-2.74 8.76, 12.85 0.56, 32 0" stroke="none" stroke-width="0" fill="#ffffff"></path><path d="M32 0 C90.32 3.49, 149.89 0.51, 223 0 M32 0 C107.85 0.14, 180.81 -0.78, 223 0 M223 0 C242.42 -1.28, 253.77 11.48, 255 32 M223 0 C242.91 0.71, 257.23 9.91, 255 32 M255 32 C256.1 126.21, 257.53 222.57, 255 359 M255 32 C257.33 132.83, 256.66 233.72, 255 359 M255 359 C256.91 380.67, 244.22 389.94, 223 391 M255 359 C257.24 379.21, 244.46 392.62, 223 391 M223 391 C183.56 394, 145.55 391.15, 32 391 M223 391 C152.15 388.48, 81.64 389.92, 32 391 M32 391 C10.88 389.17, 1.24 379.66, 0 359 M32 391 C12.88 389.7, 1.27 382.07, 0 359 M0 359 C-0.13 271.01, 1.47 182.99, 0 32 M0 359 C-2.7 235.99, -2.08 111.25, 0 32 M0 32 C1.3 10.38, 10.32 0.93, 32 0 M0 32 C-0.47 10.66, 10.05 -0.2, 32 0" stroke="#1e1e1e" stroke-width="1" fill="none"></path></g><g stroke-linecap="round" transform="translate(137 64.38552188552194) rotate(0 127.5 196)"><path d="M32 0 C99.24 2.36, 161.23 2.35, 223 0 C245.24 2.01, 254.96 9.92, 255 32 C254.51 117.92, 253.5 205.82, 255 360 C254.21 381.17, 243.66 390.57, 223 392 C172.44 395.84, 115.25 390.53, 32 392 C12.42 393.63, -1.6 379.8, 0 360 C3.1 245.34, 0.43 125.34, 0 32 C0.13 9.07, 9.83 -3.34, 32 0" stroke="none" stroke-width="0" fill="#ffec99"></path><path d="M32 0 C106.87 0.62, 177.62 -3.3, 223 0 M32 0 C80.04 -1.72, 125.21 -1.57, 223 0 M223 0 C242.67 -0.05, 253.8 12.63, 255 32 M223 0 C245.03 1.28, 254.93 10.28, 255 32 M255 32 C253.3 147.24, 253.6 261.01, 255 360 M255 32 C257.56 148.54, 257.76 266.89, 255 360 M255 360 C253.91 382.99, 242.74 392.75, 223 392 M255 360 C254.25 382.27, 243.2 390.62, 223 392 M223 392 C168.31 393.95, 116.36 393, 32 392 M223 392 C173.86 394.12, 126.57 392.63, 32 392 M32 392 C11.65 393.84, -0.34 381.54, 0 360 M32 392 C12.41 392.4, 1.41 379.73, 0 360 M0 360 C-0.74 238.5, 0.53 115.96, 0 32 M0 360 C-1.13 237.05, -1.49 115.15, 0 32 M0 32 C-1.26 10.54, 12.39 -1.73, 32 0 M0 32 C0.77 12.74, 12.93 1, 32 0" stroke="#1e1e1e" stroke-width="1" fill="none"></path></g><g stroke-linecap="round" transform="translate(170 124.38552188552194) rotate(0 92 38)"><path d="M19 0 C65.18 -3.07, 109.42 -0.1, 165 0 C176.2 1.21, 183.55 3.44, 184 19 C187.36 30.03, 181.27 46.43, 184 57 C184.17 73.22, 176.41 75.57, 165 76 C111.47 78.33, 59.46 78.02, 19 76 C6.93 79.07, -0.59 67.85, 0 57 C3.33 42.11, 2.03 35.88, 0 19 C-2.33 3.85, 5.2 -1.19, 19 0" stroke="none" stroke-width="0" fill="#ffc9c9"></path><path d="M19 0 C61.12 -0.17, 105.29 -0.06, 165 0 M19 0 C61.66 1.15, 105.11 0.1, 165 0 M165 0 C176.29 -0.99, 184.21 8.04, 184 19 M165 0 C175.55 -2.08, 186.09 6.61, 184 19 M184 19 C182.39 31.65, 182.56 45.89, 184 57 M184 19 C182.76 30.39, 184.25 42.6, 184 57 M184 57 C182.15 71.26, 175.68 77.6, 165 76 M184 57 C183.24 71.44, 179.09 77.34, 165 76 M165 76 C124.98 77.14, 84.93 76.41, 19 76 M165 76 C130.79 75.07, 95.92 74.77, 19 76 M19 76 C7.26 77.13, 1.75 68.8, 0 57 M19 76 C8.44 76.51, 0.8 70.94, 0 57 M0 57 C-2.16 44.54, -1.74 32.85, 0 19 M0 57 C0.61 49.34, -0.71 42.12, 0 19 M0 19 C0.72 7.18, 4.7 -1.66, 19 0 M0 19 C1.45 7.72, 4.12 0.1, 19 0" stroke="#1e1e1e" stroke-width="1" fill="none"></path></g><g stroke-linecap="round" transform="translate(175 255.38552188552194) rotate(0 58.5 22.5)"><path d="M2.99 2.6 C2.99 2.6, 2.99 2.6, 2.99 2.6 M2.99 2.6 C2.99 2.6, 2.99 2.6, 2.99 2.6 M0.76 11.27 C3.44 9.34, 5.3 7.46, 9.95 0.7 M0.76 11.27 C2.99 9.02, 5.49 6.38, 9.95 0.7 M0.5 17.66 C4.31 14.55, 6.93 10.1, 15.59 0.3 M0.5 17.66 C3.96 12.6, 9.41 9.07, 15.59 0.3 M0.9 23.31 C4.26 17.65, 10.67 12.3, 20.58 0.66 M0.9 23.31 C5.51 17.01, 11.31 10.64, 20.58 0.66 M0.64 29.7 C9.32 19.71, 14.72 12.85, 26.22 0.27 M0.64 29.7 C7.99 21.5, 12.93 14.74, 26.22 0.27 M1.03 35.35 C8.98 26.49, 16.08 17, 31.21 0.63 M1.03 35.35 C11.55 22.59, 22.54 10.7, 31.21 0.63 M2.08 40.24 C9.24 32.01, 18.21 21.48, 36.85 0.24 M2.08 40.24 C12.21 27.39, 24.4 15.07, 36.85 0.24 M5.1 42.86 C14.58 30.09, 26.1 15.81, 41.84 0.6 M5.1 42.86 C17.17 30.28, 28.37 15.3, 41.84 0.6 M8.78 44.73 C24.63 26.1, 40.82 9.97, 47.48 0.2 M8.78 44.73 C19.67 32.68, 30.37 20.3, 47.48 0.2 M14.42 44.33 C25.76 30.73, 38.68 17.09, 52.47 0.56 M14.42 44.33 C26.67 29.22, 38.24 16.4, 52.47 0.56 M19.41 44.69 C28.04 37.27, 36.27 26.58, 57.46 0.92 M19.41 44.69 C28.12 34.86, 36.22 24.28, 57.46 0.92 M25.05 44.3 C41.39 26.88, 52.37 10.2, 63.1 0.53 M25.05 44.3 C34.7 33.76, 44.45 21.42, 63.1 0.53 M30.04 44.66 C41.49 30.51, 53.61 16.69, 68.09 0.89 M30.04 44.66 C43.25 28.88, 57.66 12.88, 68.09 0.89 M35.68 44.27 C43.73 32.33, 54.06 25.27, 73.73 0.49 M35.68 44.27 C46.12 31.26, 58.62 18.17, 73.73 0.49 M40.67 44.63 C47.44 35.47, 57.61 25.94, 78.72 0.85 M40.67 44.63 C54.27 29.86, 67.99 13.64, 78.72 0.85 M45.65 44.99 C56.75 32.72, 63.58 25.11, 84.36 0.46 M45.65 44.99 C54.61 35.98, 64.44 24.64, 84.36 0.46 M51.3 44.59 C63.49 33.45, 73.42 20.95, 89.35 0.82 M51.3 44.59 C62.69 31.15, 76.62 17.4, 89.35 0.82 M56.28 44.95 C69.78 28.95, 87.07 9.26, 94.33 1.18 M56.28 44.95 C66.29 33.39, 77.2 20.17, 94.33 1.18 M61.93 44.56 C70.56 35.98, 77.75 26.61, 99.98 0.78 M61.93 44.56 C71.9 31.32, 81.88 20.2, 99.98 0.78 M66.91 44.92 C82.35 27.95, 95.25 14.5, 104.96 1.14 M66.91 44.92 C77.17 33.57, 88.45 20.61, 104.96 1.14 M72.56 44.52 C82.09 36.23, 89.62 24.57, 110.61 0.75 M72.56 44.52 C86.29 28.38, 99.53 12.34, 110.61 0.75 M77.54 44.88 C90.98 29.76, 106.05 13.27, 113.63 3.37 M77.54 44.88 C89.65 32.26, 101.09 19.1, 113.63 3.37 M82.53 45.24 C94.86 34.26, 105.24 22.57, 116.65 6 M82.53 45.24 C92.3 33.47, 103.54 19.4, 116.65 6 M88.17 44.85 C94.38 37.13, 102.03 29.15, 116.38 12.39 M88.17 44.85 C96.03 35.54, 102.86 27.5, 116.38 12.39 M93.16 45.21 C102.36 37.66, 108.6 26.32, 116.12 18.79 M93.16 45.21 C97.59 38.64, 102.67 32.15, 116.12 18.79 M98.8 44.81 C104.67 38.82, 109.5 30.12, 116.52 24.44 M98.8 44.81 C104.28 37.76, 111.66 29.72, 116.52 24.44 M103.79 45.17 C108.41 41.06, 113 35.5, 116.26 30.83 M103.79 45.17 C106.36 42.89, 109.67 38.64, 116.26 30.83 M110.09 44.02 C111.29 41.33, 113.06 39.64, 116.65 36.48 M110.09 44.02 C111.48 42.38, 113.69 40.53, 116.65 36.48" stroke="#ffc9c9" stroke-width="0.5" fill="none"></path><path d="M11.25 0 C40.41 1.01, 70.36 -0.38, 105.75 0 M11.25 0 C32.42 0.59, 50.67 -0.36, 105.75 0 M105.75 0 C111.25 1.4, 115.86 4.82, 117 11.25 M105.75 0 C111.37 -1.27, 118.8 5.72, 117 11.25 M117 11.25 C118.97 21.14, 118.58 27.77, 117 33.75 M117 11.25 C117.04 18.8, 116.35 26.88, 117 33.75 M117 33.75 C116.79 42.94, 111.85 43.2, 105.75 45 M117 33.75 C117.72 39.02, 114.85 44.32, 105.75 45 M105.75 45 C69.84 43.52, 36.45 44.67, 11.25 45 M105.75 45 C86.4 45.63, 64.83 45.73, 11.25 45 M11.25 45 C3.07 44.52, 0.9 41.6, 0 33.75 M11.25 45 C2.6 46.8, -0.08 42.76, 0 33.75 M0 33.75 C-0.37 27.43, -2.11 25.15, 0 11.25 M0 33.75 C0.64 27.48, 0.06 19.88, 0 11.25 M0 11.25 C1.84 2.26, 2.09 1.33, 11.25 0 M0 11.25 C-1.33 2.6, 2.33 0.4, 11.25 0" stroke="#1e1e1e" stroke-width="1" fill="none"></path></g><g stroke-linecap="round" transform="translate(10 10) rotate(0 270.5 251.19276094276097)"><path d="M32 0 C200.57 1.08, 368.5 1.91, 509 0 M32 0 C157.94 0.3, 284.26 0.4, 509 0 M509 0 C531.44 0.63, 542.05 9.96, 541 32 M509 0 C532.46 -2.29, 540.94 10.1, 541 32 M541 32 C541.03 147.19, 541.49 263.82, 541 470.39 M541 32 C542.1 152, 542.06 272.67, 541 470.39 M541 470.39 C540.44 493.08, 528.62 504.07, 509 502.39 M541 470.39 C541.09 492.6, 529.1 504.28, 509 502.39 M509 502.39 C376.88 501.72, 244.84 500.18, 32 502.39 M509 502.39 C377.92 501.62, 246.91 501.6, 32 502.39 M32 502.39 C11.55 503.98, 0.19 491.24, 0 470.39 M32 502.39 C9.06 502.62, -2.03 490.06, 0 470.39 M0 470.39 C-1.21 361.64, -2.66 253.37, 0 32 M0 470.39 C1.34 337.78, 1.56 205.15, 0 32 M0 32 C-0.66 11, 12.54 1.09, 32 0 M0 32 C-0.21 12.62, 12.65 0.73, 32 0" stroke="#1e1e1e" stroke-width="1" fill="none"></path></g><g stroke-linecap="round" transform="translate(174.5 313.88552188552194) rotate(0 58.5 22.5)"><path d="M2.99 2.6 C2.99 2.6, 2.99 2.6, 2.99 2.6 M2.99 2.6 C2.99 2.6, 2.99 2.6, 2.99 2.6 M0.76 11.27 C4.55 8.51, 4.72 6.78, 9.95 0.7 M0.76 11.27 C2.83 8.04, 5.25 5.7, 9.95 0.7 M0.5 17.66 C6.55 13.38, 11.28 4.7, 15.59 0.3 M0.5 17.66 C5.72 13.27, 8.79 6.79, 15.59 0.3 M0.9 23.31 C6.11 14.14, 13.14 7.16, 20.58 0.66 M0.9 23.31 C5.24 18.56, 9.53 12.29, 20.58 0.66 M0.64 29.7 C7.35 19.97, 16.5 8.83, 26.22 0.27 M0.64 29.7 C8.21 20.53, 14.35 13.07, 26.22 0.27 M1.03 35.35 C9.18 26.33, 17.6 15.85, 31.21 0.63 M1.03 35.35 C7.22 27.33, 13.91 19.66, 31.21 0.63 M2.08 40.24 C15.07 24.18, 30.89 10.06, 36.85 0.24 M2.08 40.24 C15.24 24.26, 28.04 8.9, 36.85 0.24 M5.1 42.86 C18.96 28.88, 31.3 12.81, 41.84 0.6 M5.1 42.86 C18.77 26.41, 33.52 9.91, 41.84 0.6 M8.78 44.73 C21.67 26.72, 37.46 11.76, 47.48 0.2 M8.78 44.73 C21.36 30.98, 35.03 15.22, 47.48 0.2 M14.42 44.33 C24.58 32.42, 31.94 25.79, 52.47 0.56 M14.42 44.33 C22.07 34.61, 31.43 25.25, 52.47 0.56 M19.41 44.69 C31.51 26.81, 48.85 13.11, 57.46 0.92 M19.41 44.69 C32.61 31, 44.51 15.77, 57.46 0.92 M25.05 44.3 C36.31 34.64, 42.94 22.49, 63.1 0.53 M25.05 44.3 C37.69 28.68, 49.33 15.47, 63.1 0.53 M30.04 44.66 C41.2 31.06, 51 20.48, 68.09 0.89 M30.04 44.66 C43.57 28.91, 57.73 12.1, 68.09 0.89 M35.68 44.27 C49.73 26.65, 65.03 9.58, 73.73 0.49 M35.68 44.27 C48.94 29.8, 62.09 13.92, 73.73 0.49 M40.67 44.63 C52.82 31.02, 62.74 20.52, 78.72 0.85 M40.67 44.63 C54.45 28.51, 69.71 10.92, 78.72 0.85 M45.65 44.99 C56.71 35.17, 63.88 22.91, 84.36 0.46 M45.65 44.99 C60.11 30.33, 72.72 13.28, 84.36 0.46 M51.3 44.59 C63.08 31.37, 72.34 19.38, 89.35 0.82 M51.3 44.59 C63.12 30, 77.73 14.98, 89.35 0.82 M56.28 44.95 C71.01 28.57, 84.76 9.02, 94.33 1.18 M56.28 44.95 C65.73 33.23, 76.22 22.34, 94.33 1.18 M61.93 44.56 C75.01 28.6, 88.47 12.55, 99.98 0.78 M61.93 44.56 C70.74 35.4, 78.63 24.36, 99.98 0.78 M66.91 44.92 C82.89 25.93, 96.51 11.52, 104.96 1.14 M66.91 44.92 C74.82 35.29, 85.19 24.73, 104.96 1.14 M72.56 44.52 C81.11 30.86, 91.87 21.81, 110.61 0.75 M72.56 44.52 C85.38 30.41, 99.75 13.22, 110.61 0.75 M77.54 44.88 C90.39 29.38, 105.52 16.45, 113.63 3.37 M77.54 44.88 C87.58 32.15, 98.61 19.1, 113.63 3.37 M82.53 45.24 C94.12 33.05, 103.54 21.07, 116.65 6 M82.53 45.24 C93.2 33.1, 103.14 21.99, 116.65 6 M88.17 44.85 C96.69 35.69, 100.61 28.07, 116.38 12.39 M88.17 44.85 C98.42 34.77, 107.63 24.19, 116.38 12.39 M93.16 45.21 C100.75 35.51, 109.1 25.57, 116.12 18.79 M93.16 45.21 C97.21 39.34, 102.61 34.61, 116.12 18.79 M98.8 44.81 C104.72 38.83, 109.3 35.1, 116.52 24.44 M98.8 44.81 C106.11 38.05, 113.03 30.09, 116.52 24.44 M103.79 45.17 C109.24 40.79, 111.04 36.24, 116.26 30.83 M103.79 45.17 C106.84 42.36, 108.44 38.22, 116.26 30.83 M110.09 44.02 C113.39 42.02, 115.58 38.36, 116.65 36.48 M110.09 44.02 C111.47 41.63, 113.04 40.39, 116.65 36.48" stroke="#a5d8ff" stroke-width="0.5" fill="none"></path><path d="M11.25 0 C41.7 -1.26, 74.06 -0.23, 105.75 0 M11.25 0 C34.34 1.28, 55.08 0.55, 105.75 0 M105.75 0 C112.39 -0.81, 118.55 2.76, 117 11.25 M105.75 0 C115.44 -1.6, 115.28 4.14, 117 11.25 M117 11.25 C116.72 18.66, 115.37 25.21, 117 33.75 M117 11.25 C117.16 18.39, 117.75 26.23, 117 33.75 M117 33.75 C115.73 41.71, 111.79 44.03, 105.75 45 M117 33.75 C118.12 41.01, 113.13 45.31, 105.75 45 M105.75 45 C70.86 45.97, 37.33 44.37, 11.25 45 M105.75 45 C79.43 43.99, 52.19 44.55, 11.25 45 M11.25 45 C3.1 44.55, 0.21 43.13, 0 33.75 M11.25 45 C2.57 43.99, 2.02 39.28, 0 33.75 M0 33.75 C1.58 27.94, -0.5 24.71, 0 11.25 M0 33.75 C0.38 28.7, -0.15 23.22, 0 11.25 M0 11.25 C1.7 3.61, 3.45 1.48, 11.25 0 M0 11.25 C-1.09 4.31, 4.69 1.91, 11.25 0" stroke="#1e1e1e" stroke-width="1" fill="none"></path></g></svg>